<svg xmlns="http://www.w3.org/2000/svg" viewBox="0 0 24 24" fill="none" width="24" height="24">
  <circle cx="12" cy="12" r="12" fill="#E60023"/>
  <path d="M12 6.5c-3.03 0-4.5 2.16-4.5 3.97 0 1.09.41 2.06 1.29 2.42.14.06.27.02.32-.1.03-.07.11-.25.15-.33.05-.11.03-.15-.07-.25-.26-.25-.43-.7-.43-1.12 0-1.36 1.03-2.66 2.98-2.66 1.63 0 2.53.89 2.53 2.08 0 1.75-.77 3.23-1.91 3.23-.63 0-1.1-.52-.95-1.16.18-.75.53-1.56.53-2.1 0-.49-.28-.9-.86-.9-.68 0-1.23.7-1.23 1.64 0 .6.2 1.01.2 1.01s-.67 2.84-.8 3.36c-.24.97-.04 2.16-.02 2.28.01.07.1.09.14.03.06-.08.81-1.07 1.06-2.05.07-.27.41-1.56.41-1.56.2.38.8.71 1.44.71 1.89 0 3.17-1.85 3.17-4.33 0-1.87-1.58-3.27-3.54-3.27z" fill="#fff"/>
</svg>
