<svg xmlns="http://www.w3.org/2000/svg" width="24" height="24" viewBox="0 0 24 24" fill="none" stroke="currentColor" stroke-width="2" stroke-linecap="round" stroke-linejoin="round"><circle cx="12" cy="12" r="10"/><path d="M12 8.5c-2.03 0-3 1.45-3 2.66 0 .42.17.87.43 1.12.1.1.12.14.07.25-.04.08-.12.26-.15.33-.05.12-.18.16-.32.1-.88-.36-1.29-1.33-1.29-2.42 0-1.81 1.47-3.97 4.5-3.97 1.96 0 3.54 1.4 3.54 3.27 0 2.48-1.28 4.33-3.17 4.33-.64 0-1.24-.33-1.44-.71 0 0-.34 1.29-.41 1.56-.25.98-1 1.97-1.06 2.05-.04.06-.13.04-.14-.03-.02-.12-.22-1.31.02-2.28.13-.52.8-3.36.8-3.36s-.2-.41-.2-1.01c0-.94.55-1.64 1.23-1.64.58 0 .86.41.86.9 0 .54-.35 1.35-.53 2.1-.15.64.32 1.16.95 1.16 1.14 0 1.91-1.48 1.91-3.23 0-1.19-.9-2.08-2.53-2.08Z"/></svg>
